<svg xmlns="http://www.w3.org/2000/svg" width="32" height="30" viewBox="0 0 32 30">
    <g fill="#BDBDBD" fill-rule="nonzero">
        <path d="M25.988 7.696a9.196 9.196 0 0 0-2.885-5.277A9.242 9.242 0 0 0 16.861 0a9.243 9.243 0 0 0-5.02 1.475 9.203 9.203 0 0 0-3.003 3.153 5.314 5.314 0 0 0-.973-.092C5.073 4.536 2.8 6.805 2.8 9.591c0 .36.04.708.105 1.049A7.028 7.028 0 0 0 0 16.31c0 1.816.677 3.58 1.912 4.976 1.268 1.429 2.944 2.275 4.731 2.373h5.703a.882.882 0 0 0 .888-.885.882.882 0 0 0-.887-.885H6.722c-2.688-.164-4.948-2.714-4.948-5.585 0-1.856.999-3.586 2.609-4.524a.891.891 0 0 0 .387-1.075A3.294 3.294 0 0 1 8.988 6.49a.892.892 0 0 0 1.111-.452 7.508 7.508 0 0 1 6.768-4.281c3.877 0 7.077 2.897 7.445 6.739.04.4.342.721.736.787 2.924.498 5.132 3.192 5.132 6.267 0 3.258-2.57 6.09-5.736 6.332H19.6a.882.882 0 0 0-.887.885c0 .492.394.885.887.885h4.941c2.004-.144 3.877-1.062 5.27-2.596a8.153 8.153 0 0 0 2.142-5.506c-.007-3.678-2.523-6.95-5.966-7.854z"/>
        <path d="M21.406 17.202a.88.88 0 0 0 0-1.253l-4.698-4.687a.871.871 0 0 0-1.248 0L10.76 15.95a.88.88 0 0 0 0 1.253c.171.17.401.262.624.262a.867.867 0 0 0 .625-.262l3.187-3.18v14.612c0 .492.394.885.887.885a.882.882 0 0 0 .887-.885V14.022l3.186 3.18c.342.347.9.347 1.249 0z"/>
    </g>
</svg>
