<?xml version="1.0" encoding="UTF-8"?>
<svg width="120px" height="25px" viewBox="0 0 120 25" version="1.1" xmlns="http://www.w3.org/2000/svg" xmlns:xlink="http://www.w3.org/1999/xlink">
    <!-- Generator: Sketch 46.2 (44496) - http://www.bohemiancoding.com/sketch -->
    <title>Logo</title>
    <desc>Created with Sketch.</desc>
    <defs></defs>
    <g id="Landing-Page" stroke="none" stroke-width="1" fill="none" fill-rule="evenodd">
        <g id="Bidstack-Landing-Page" transform="translate(-150.000000, -5152.000000)">
            <g id="Footer" transform="translate(150.000000, 5152.000000)">
                <g id="Logo">
                    <path d="M76.3007288,11 C78.3851115,11.0160023 79.4561978,11.4569013 80.679766,12.3384606 C81.0877768,12.632234 81.0898656,12.6704484 80.7770109,13.0490102 C80.4806345,13.407987 80.165691,13.7519169 79.8874174,14.1247465 C79.6650771,14.4225803 79.4926357,14.4063391 79.2206285,14.1746641 C77.6644781,12.8498174 75.5506202,12.8039601 74.0251055,14.0590654 C72.9925458,14.9088589 72.5251205,16.0710554 72.3970079,17.388498 C72.2306008,19.1043261 72.6246863,20.6422182 73.9529261,21.7838745 C75.339188,22.9756871 77.4697563,23.3621306 79.2763296,21.8211335 C79.6787703,21.4779201 79.6845725,21.4853242 80.0069428,21.9006673 C80.2513315,22.2164141 80.4848121,22.542431 80.7454469,22.8431308 C80.9647701,23.0960626 80.9155675,23.2572797 80.6786056,23.4708029 C78.3031844,25.6098558 74.3992315,25.4916299 72.0762622,23.1990027 C68.859754,20.0248163 69.4710739,14.2993387 73.2824238,11.9388809 C74.3017545,11.3076262 75.4505903,11 76.3007288,11" id="Fill-7" fill="#454545"></path>
                    <path d="M84.7498871,17.2592379 C86.4714832,15.4114686 88.2503735,13.8881349 89.8936522,12.1046853 C90.1362282,11.8414952 90.3790351,11.7112008 90.7389716,11.7303547 C91.2975894,11.7601498 91.8589794,11.7365029 92.4192143,11.739577 C92.5592153,11.7402864 92.7207016,11.7149843 92.7969397,11.8793303 C92.8791845,12.0557362 92.7297115,12.1467768 92.6349914,12.2458573 C91.6145553,13.3128057 90.5918089,14.3771529 89.5686005,15.4410272 C88.8741402,16.1629673 88.1859176,16.8915285 87.4764407,17.5976251 C87.2555811,17.8175413 87.2803007,17.9502004 87.4706651,18.1727178 C89.2453969,20.2484432 91.0092705,22.3341004 92.7759165,24.4169198 C92.8269729,24.4774559 92.8814948,24.5361003 92.9244654,24.6025481 C93.0630802,24.8148973 93.0122548,24.9818444 92.7608999,24.9870468 C91.9405311,25.0028902 91.1197004,24.9939044 90.2988696,24.9908303 C90.0992642,24.9903573 90.0179435,24.8146608 89.9116722,24.6862581 C88.3042022,22.7441377 86.6990426,20.800362 85.0927278,18.8572958 C85.0423644,18.7965232 84.9862254,18.740953 84.916918,18.6655194 C84.8173463,18.8012526 84.7501181,19.2370651 84.7498871,19.3704336 C84.7464217,21.1704361 84.7508112,22.4960817 84.7498871,24.2963206 C84.7496561,24.8011821 84.8404488,24.9983973 84.3430526,24.9995796 C83.9001782,25.0005255 83.4857199,24.9995796 83.0245946,24.9995796 C82.0859412,24.9995796 82,24.5767729 82,24.2963206 C82,24.1116383 82,24.4696524 82,24.2963206 C82,18.415808 82,12.7951749 82,6.70373192 C82,6.00827642 82.0429706,6 82.6875295,6 C82.8915243,6 83.8186265,6.89763655 84.1450644,7.20244517 C84.6729559,7.6959561 84.7535835,8.09085943 84.7498871,8.8149277 C84.7364877,11.4815893 84.7498871,13.8888443 84.7498871,16.5555059 C84.7498871,16.6848545 84.7498871,17.0334099 84.7498871,17.2592379" id="Fill-5" fill="#454545"></path>
                    <path d="M60.9928475,13.1794449 C58.4154759,13.1920496 56.3953485,15.3659967 56.400047,18.1221364 C56.4040407,20.6877793 58.504043,22.81107 61.0266768,22.801557 C63.5354501,22.7920441 65.6284045,20.6295125 65.6063215,18.0695774 C65.5832988,15.346733 63.5267578,13.1668402 60.9928475,13.1794449 Z M65.7658361,23.2279751 C65.1860391,23.6853102 64.6522876,24.070109 64.0468836,24.3386121 C60.357608,25.974364 55.4446035,24.5131747 54.2361449,19.8580122 C53.1829723,15.8002629 55.7434292,11.5974411 60.1055325,11.057819 C63.9322398,10.5843119 67.223786,13.0621978 67.8989629,16.9104243 C67.958869,17.2514636 67.9868252,17.6027293 67.9882348,17.9494764 C67.9964572,20.0137867 67.9837712,22.0778593 67.9999811,24.1419318 C68.00327,24.5283955 67.5778193,25 67.1878424,25 C66.7287972,25 66.9820473,25 66.488703,25 C66.231929,25 65.7545597,24.5448053 65.763017,24.2870043 C65.7738236,23.9659422 65.7658361,23.6439288 65.7658361,23.2279751 L65.7658361,23.2279751 Z" id="Fill-4" fill="#454545"></path>
                    <path d="M48.1001608,18.1901273 C48.1001608,16.7911457 48.1001608,15.3514427 48.1001608,13.8876444 C48.1029832,13.5980171 47.9141167,13.5705483 46.576999,13.5705483 C46.3006378,13.5705483 45.9892316,13.4806723 46.000286,13.1705639 C46.0158093,12.7366049 46.0108701,12.1708438 46.000286,11.7364029 C45.9939356,11.4730397 46.275236,11.4983399 46.5252547,11.4983399 C47.8374412,11.4983399 48.1001608,11.5368926 48.1001608,11.0193224 C48.1001608,9.57407756 48.1001608,8.42014663 48.1001608,6.71708048 C48.1001608,6.04481753 48.1984748,6 48.7998838,6 C48.9795774,6 49.7973713,6.64913133 50.1537009,7.01393638 C50.5577762,7.42813711 50.8997585,7.80402607 50.8997585,8.86832194 C50.8934081,9.75093814 50.8997585,10.2181488 50.8997585,11.0193224 C50.8952897,11.2875048 51.0455831,11.4959304 52.393285,11.4959304 C52.6929311,11.4959304 53.0123341,11.4103915 52.9996332,11.7364029 C52.9834043,12.1431341 52.9855211,12.7635918 52.9996332,13.1705639 C53.0097469,13.4659741 52.7228016,13.6339193 52.4285651,13.6247631 C51.9647487,13.6105467 51.5004619,13.6266907 51.0368807,13.6187392 C50.8489551,13.6156068 50.7452314,13.6510271 50.7464074,13.8816205 C50.7595787,16.6106708 50.7576971,19.2626156 50.7788652,21.9914249 C50.7830988,22.5617641 51.012655,22.7670573 51.5594974,22.8022367 C51.8763131,22.8227178 52.1945401,22.8335608 52.5118263,22.8285007 C52.7613746,22.8241635 52.8770935,22.9164491 52.8712134,23.1839085 C52.8608646,23.6723232 52.8669798,24.1617018 52.8688614,24.6503574 C52.869567,24.8330009 52.8272309,24.9848022 52.6150795,24.985766 C51.7297829,24.9893803 50.8388414,25.0713049 49.9716553,24.7975806 C49.0108591,24.4944599 48.1784827,23.4424527 48.1001608,22.4921283 C48.1001608,21.2222983 48.1001608,20.2213734 48.1001608,18.9069668 C48.0942807,18.5132472 48.1001608,18.5836059 48.1001608,18.1901273" id="Fill-8" fill="#454545"></path>
                    <path d="M37.103594,20.7865025 C37.1450156,20.7865025 37.1871725,20.7915053 37.2276137,20.7855496 C37.9021241,20.7855496 38.1896244,20.8241429 38.4119285,21.5033371 C38.7489386,22.5336827 40.0768811,23.0961442 41.373696,22.9362917 C41.9114416,22.8700637 42.4320303,22.7642895 42.8913445,22.455305 C43.7479629,21.8790261 44.1261495,20.3705526 42.7619326,19.6670588 C41.984726,19.2663557 41.1322742,19.0922094 40.3001656,18.8558851 C39.8107043,18.7167586 39.3156058,18.5952612 38.8273701,18.4525613 C36.0276126,17.6340024 35.1857,14.3254616 37.2665843,12.3105106 C38.3636442,11.248004 39.747469,10.9649865 41.2256566,11.0033416 C42.4263931,11.0345497 43.5506588,11.3180437 44.4423263,12.1692401 C45.1969839,12.8898864 45.5430626,13.7882525 45.6210039,14.8000161 C45.641347,15.0644516 45.5286018,15.1602201 45.2636506,15.1602201 C44.7614443,15.1602201 44.3364439,15.1628407 43.8543356,15.1628407 C43.5648745,15.1628407 43.4408548,15.0673104 43.3781096,14.7912016 C42.9604622,12.9551615 40.6028619,12.2373739 39.1403606,13.4933235 C38.0648694,14.4169419 38.333252,15.8806282 39.6879101,16.3416036 C40.5195285,16.6246211 41.3776176,16.8337872 42.2224713,17.079879 C42.8293346,17.2566458 43.4506587,17.3931517 44.02762,17.6561578 C45.491592,18.3232023 46.0700239,19.361886 45.9933082,20.9284877 C45.900661,22.8197972 44.8940424,24.0778908 43.0116877,24.6567901 C41.0852153,25.2490304 39.2143802,25.1153833 37.5288395,23.9366203 C36.5766327,23.2705287 36.1501617,22.2923555 36.0048184,21.1824411 C35.9643772,20.8727418 36.1857009,20.7836437 36.3989364,20.7836437 C36.639868,20.7836437 36.8685447,20.7865025 37.103594,20.7865025" id="Fill-6" fill="#454545"></path>
                    <path d="M31.6155835,18.1011207 C31.6517323,15.5891179 29.5640222,13.4713642 27.02633,13.4462883 C24.5930937,13.4223733 22.4621929,15.4920649 22.4168895,17.9232675 C22.366422,20.6421465 24.356014,22.8035509 26.946521,22.8444153 C29.519423,22.8848154 31.5770874,20.7944595 31.6155835,18.1011207 Z M31.7613523,13.0320714 C31.7613523,12.5245164 31.7613523,12.0838304 31.7613523,11.6431445 C31.7613523,9.90199382 31.7601787,8.16084318 31.7634649,6.41969254 C31.7636997,6.27179109 31.7075986,6.08511485 31.9101727,6.01429862 C32.0819968,5.95416287 32.1726035,6.09695626 32.2735385,6.19656336 C32.6207077,6.53810657 32.9622434,6.88568659 33.3141073,7.22235393 C33.7772343,7.66536172 34.0011691,8.20008234 33.9999954,8.8367319 C33.9934229,12.1096029 34.0065679,15.3822417 33.9772264,18.6548804 C33.9673676,19.7454505 33.7455455,20.8111768 33.2634051,21.8079443 C32.6270455,23.123501 31.6233297,24.0580431 30.2196298,24.5010509 C28.1584444,25.1513993 26.0857572,25.2301098 24.0600164,24.3519885 C21.3659925,23.1845654 19.733898,20.3270723 20.0357638,17.3625422 C20.3322309,14.4493248 22.4952901,12.0360004 25.4374263,11.4894384 C27.6434415,11.079633 29.7306822,11.41839 31.5301409,12.8755791 C31.5808431,12.9164436 31.6383525,12.9491816 31.7613523,13.0320714 L31.7613523,13.0320714 Z" id="Fill-2" fill="#454545"></path>
                    <path d="M16.0000027,12.5931479 C16.0000027,12.4324062 16.3284069,12.1160185 16.5388578,12.0273095 C16.778293,11.9263248 16.8949861,12.128989 17.0288177,12.251514 C17.4204832,12.6105191 17.8048396,12.9764727 18.1914644,13.3401101 C18.6083335,13.7320048 19.0002511,14.1134767 18.999999,14.6610174 C18.999747,17.844119 18.9909257,21.127742 18.999999,24.3106119 C19.0007551,24.5707169 18.5667474,25.0137987 18.250189,24.9996702 C17.6896587,24.9996702 17.3594903,24.9996702 16.7500648,24.9996702 C16.4322462,24.9996702 15.9987426,24.5690956 16.0000027,24.3106119 C16.0105883,22.3277456 16.0000027,12.5931479 16.0000027,12.5931479" id="Fill-11" fill="#454545"></path>
                    <path d="M16.0000222,7.48974325 C16.0042828,6.65847215 16.6844124,5.99035187 17.5165787,6.00010545 C18.3299087,6.00941568 18.9934442,6.67554092 18.9999472,7.4892999 C19.0068988,8.31635922 18.3258723,9.00176994 17.499312,8.99999657 C16.6705093,8.99800152 15.9955374,8.3181326 16.0000222,7.48974325" id="Fill-12" fill="#454545"></path>
                    <path d="M2.41765791,18.0570547 C2.39607692,20.7062665 4.41202269,22.8387402 6.97335756,22.8752186 C9.47135692,22.9107676 11.5656511,20.8152369 11.593331,18.2519932 C11.6219493,15.5872142 9.60999131,13.4770456 7.03176697,13.4686812 C4.52391542,13.4603167 2.43830059,15.5342392 2.41765791,18.0570547 Z M2.25861541,13.0613782 C3.06344552,12.4117381 3.84716379,11.9372871 4.7446514,11.6851915 C8.86333604,10.5285719 12.6517377,12.4986356 13.7155397,16.1652916 C15.0179054,20.6537562 11.7063966,25.2021662 6.67966846,24.9930545 C3.13921355,24.845747 0.286535344,22.1342664 0.0636881849,18.6506993 C0.0268597597,18.0768041 0.00903198698,17.5005854 0.00809368315,16.9255285 C0.00316758807,13.4814602 0.00551334763,10.0371596 0.00574792359,6.59309134 C0.00574792359,6.47529179 -0.0113761212,6.35331002 0.0134889302,6.24062209 C0.0657993685,6.00409362 0.216866284,5.9130139 0.406169081,6.10028497 C0.910741964,6.59959703 1.45237785,7.06521889 1.89783759,7.61959701 C2.18050162,7.97136921 2.26049202,8.39516875 2.25955371,8.83802068 C2.25720795,10.068991 2.25861541,11.2999614 2.25861541,12.5309318 C2.25861541,12.672663 2.25861541,12.8143942 2.25861541,13.0613782 L2.25861541,13.0613782 Z" id="Fill-3" fill="#454545"></path>
                    <g id="Joypad" transform="translate(100.000000, 0.000000)">
                        <path d="M9.94811321,18.7992925 C7.03561321,18.7992925 4.12311321,18.7995283 1.21061321,18.7990566 C0.612971698,18.7988208 0.481839623,18.6691038 0.480896226,18.0804245 C0.47995283,17.6150943 0.486084906,17.1495283 0.479245283,16.6841981 C0.474292453,16.3400943 0.650943396,16.1698113 0.975943396,16.1313679 C1.09410377,16.1174528 1.21438679,16.1150943 1.33372642,16.1150943 C7.09221698,16.1143868 12.8507075,16.1143868 18.6091981,16.1148585 C19.3158019,16.1148585 19.4549528,16.2525943 19.4566038,16.9466981 C19.4573113,17.3193396 19.4584906,17.6917453 19.4561321,18.0641509 C19.4525943,18.6448113 19.3002358,18.7988208 18.7254717,18.7990566 C15.7997642,18.7995283 12.8738208,18.7992925 9.94811321,18.7992925" id="Fill-9" fill="#DACD37"></path>
                        <path d="M9.94693396,24.5929245 C7.04834906,24.5929245 4.1495283,24.5931604 1.25070755,24.5926887 C0.59245283,24.5926887 0.479716981,24.4816038 0.479009434,23.8363208 C0.478537736,23.3841981 0.479716981,22.9320755 0.479009434,22.4799528 C0.478537736,22.1216981 0.655424528,21.9375 1.01485849,21.9351415 C1.32075472,21.932783 1.62641509,21.9341981 1.93231132,21.9341981 C7.50377358,21.9341981 13.075,21.9341981 18.6466981,21.9341981 C19.3429245,21.934434 19.4495283,22.0419811 19.4504717,22.7445755 C19.4509434,23.1169811 19.4521226,23.4891509 19.45,23.8615566 C19.446934,24.4518868 19.3089623,24.592217 18.7231132,24.5924528 C15.7976415,24.5936321 12.8721698,24.5929245 9.94693396,24.5929245" id="Fill-10" fill="#19A192"></path>
                        <path d="M16.745283,9.08018868 C16.1591981,9.08018868 15.6839623,8.60495283 15.6839623,8.01886792 C15.6839623,7.43278302 16.1591981,6.95754717 16.745283,6.95754717 C17.3313679,6.95754717 17.8066038,7.43278302 17.8066038,8.01886792 C17.8066038,8.60495283 17.3313679,9.08018868 16.745283,9.08018868 Z M16.7714623,11.8580189 C16.2,11.8580189 15.7365566,11.3945755 15.7365566,10.8228774 C15.7365566,10.2511792 16.2,9.78773585 16.7714623,9.78773585 C17.3431604,9.78773585 17.8066038,10.2511792 17.8066038,10.8228774 C17.8066038,11.3945755 17.3431604,11.8580189 16.7714623,11.8580189 Z M13.6792453,9.08018868 C13.0931604,9.08018868 12.6179245,8.60495283 12.6179245,8.01886792 C12.6179245,7.43278302 13.0931604,6.95754717 13.6792453,6.95754717 C14.2653302,6.95754717 14.740566,7.43278302 14.740566,8.01886792 C14.740566,8.60495283 14.2653302,9.08018868 13.6792453,9.08018868 Z M13.653066,11.8580189 C13.0813679,11.8580189 12.6179245,11.3945755 12.6179245,10.8228774 C12.6179245,10.2511792 13.0813679,9.78773585 13.653066,9.78773585 C14.2247642,9.78773585 14.6879717,10.2511792 14.6879717,10.8228774 C14.6879717,11.3945755 14.2247642,11.8580189 13.653066,11.8580189 Z M10.5242925,11.9103774 L9.34504717,11.9103774 C9.08561321,11.9103774 8.87334906,11.6981132 8.87334906,11.4386792 C8.87334906,11.1792453 9.08561321,10.9669811 9.34504717,10.9669811 L10.5242925,10.9669811 C10.7837264,10.9669811 10.9959906,11.1792453 10.9959906,11.4386792 C10.9959906,11.6981132 10.7837264,11.9103774 10.5242925,11.9103774 Z M7.19339623,10.1415094 L5.4245283,10.1415094 L5.4245283,11.9103774 L4.00943396,11.9103774 L4.00943396,10.1415094 L2.24056604,10.1415094 L2.24056604,8.72641509 L4.00943396,8.72641509 L4.00943396,6.95754717 L5.4245283,6.95754717 L5.4245283,8.72641509 L7.19339623,8.72641509 L7.19339623,10.1415094 Z M18.542217,5.62617925 C12.7889151,5.62570755 7.03514151,5.6259434 1.28183962,5.62617925 C1.18867925,5.62617925 1.09551887,5.61580189 1.00283019,5.63136792 C0.640330189,5.69268868 0.441273585,6.19009434 0.448113208,7.29504717 C0.456367925,8.59363208 0.449528302,9.89316038 0.45,11.192217 C0.450943396,12.9599057 0.578066038,13.3245283 1.19622642,13.3247642 C4.11957547,13.3257075 7.04268868,13.3252358 9.96603774,13.3252358 C12.8759434,13.3252358 15.7860849,13.3261792 18.6959906,13.3245283 C19.2771226,13.3240566 19.4176887,12.9129717 19.4205189,11.2160377 C19.4221698,10.184434 19.4209906,9.15283019 19.4207547,8.12122642 C19.420283,5.91273585 19.3195755,5.62617925 18.542217,5.62617925 L18.542217,5.62617925 Z" id="Fill-13" fill="#D31270"></path>
                        <polygon id="Fill-14" fill="#D31270" points="9.55188679 5.77830189 10.495283 5.77830189 10.495283 0.117924528 9.55188679 0.117924528"></polygon>
                    </g>
                </g>
            </g>
        </g>
    </g>
</svg>