<?xml version="1.0" encoding="UTF-8"?>
<svg width="12px" height="16px" viewBox="0 0 12 16" version="1.1" xmlns="http://www.w3.org/2000/svg" xmlns:xlink="http://www.w3.org/1999/xlink">
    <!-- Generator: sketchtool 42 (36781) - http://www.bohemiancoding.com/sketch -->
    <title>8EEEBBDB-E69E-4AFB-86D6-EB091A6E4A92</title>
    <desc>Created with sketchtool.</desc>
    <defs></defs>
    <g id="Symbols" stroke="none" stroke-width="1" fill="none" fill-rule="evenodd">
        <g id="ic_looping" transform="translate(-2.000000, 0.000000)">
            <g id="Shape">
                <path d="M8.00333341,2.66666667 L8.00333341,0.666666667 L5.33666674,3.33333333 L8.00333341,6 L8.00333341,4 C10.2100001,4 12.0033334,5.79333333 12.0033334,8 C12.0033334,8.67333333 11.8366667,9.31333333 11.5366667,9.86666667 L12.5100001,10.84 C13.0300001,10.02 13.3366667,9.04666667 13.3366667,8 C13.3366667,5.05333333 10.9500001,2.66666667 8.00333341,2.66666667 Z M8.00333341,12 C5.79666674,12 4.00333341,10.2066667 4.00333341,8 C4.00333341,7.32666667 4.17000008,6.68666667 4.47000008,6.13333333 L3.49666674,5.16 C2.97666674,5.98 2.67000008,6.95333333 2.67000008,8 C2.67000008,10.9466667 5.05666674,13.3333333 8.00333341,13.3333333 L8.00333341,15.3333333 L10.6700001,12.6666667 L8.00333341,10 L8.00333341,12 Z" fill="#424242" fill-rule="nonzero"></path>
                <polygon points="0 0 16 0 16 16 0 16"></polygon>
            </g>
        </g>
    </g>
</svg>