<svg xmlns="http://www.w3.org/2000/svg" width="20" height="20" viewBox="0 0 20 20">
    <g fill="none" fill-rule="evenodd">
        <path d="M-2-2h24v24H-2z"/>
        <path fill="#000" fill-opacity=".26" fill-rule="nonzero" d="M9 0v2.07A8.002 8.002 0 0 0 2.07 9H0v2h2.07A8.002 8.002 0 0 0 9 17.93V20h2v-2.07A8.002 8.002 0 0 0 17.93 11H20V9h-2.07A8.002 8.002 0 0 0 11 2.07V0H9zm0 4.08V6h2V4.09c2.5.41 4.5 2.41 4.92 4.91H14v2h1.91c-.41 2.5-2.41 4.5-4.91 4.92V14H9v1.91C6.5 15.5 4.5 13.5 4.08 11H6V9H4.09C4.5 6.5 6.5 4.5 9 4.08zM10 9a1 1 0 1 0 0 2 1 1 0 0 0 0-2z"/>
    </g>
</svg>
