<?xml version="1.0" encoding="UTF-8"?>
<svg width="64px" height="60px" viewBox="0 0 64 60" version="1.1" xmlns="http://www.w3.org/2000/svg" xmlns:xlink="http://www.w3.org/1999/xlink">
    <!-- Generator: Sketch 43.2 (39069) - http://www.bohemiancoding.com/sketch -->
    <title>Icon@2x</title>
    <desc>Created with Sketch.</desc>
    <defs></defs>
    <g id="Pages" stroke="none" stroke-width="1" fill="none" fill-rule="evenodd">
        <g id="Agency-–-Add-Design" transform="translate(-688.000000, -308.000000)" fill-rule="nonzero" fill="#424242">
            <g id="Drag-Image-Here" transform="translate(64.000000, 61.000000)">
                <g id="Group" transform="translate(445.000000, 247.000000)">
                    <g id="Icon" transform="translate(179.000000, 0.000000)">
                        <path d="M51.9753593,15.4930487 C51.2919918,11.415236 49.2813142,7.69373711 46.2061602,4.86962092 C42.7893224,1.72878141 38.3474333,0 33.7215606,0 C30.1470226,0 26.6644764,1.02935076 23.6813142,2.96928105 C21.1975359,4.57929121 19.1342916,6.75676398 17.6755647,9.31694408 C17.0447639,9.19817284 16.3876797,9.13218882 15.7305955,9.13218882 C10.1453799,9.13218882 5.59835729,13.6982832 5.59835729,19.3069252 C5.59835729,20.0327495 5.67720739,20.7321801 5.80862423,21.4184139 C2.19466119,24.0577749 0,28.307146 0,32.83365 C0,36.4891649 1.35359343,40.0391053 3.82422998,42.8500247 C6.36057495,45.7269281 9.71170431,47.4293159 13.2862423,47.627268 L13.3913758,47.627268 L24.6932238,47.627268 C25.6788501,47.627268 26.4673511,46.8354597 26.4673511,45.8456993 C26.4673511,44.855939 25.6788501,44.0641307 24.6932238,44.0641307 L13.4439425,44.0641307 C8.06899384,43.7342106 3.54825462,38.6006536 3.54825462,32.8204532 C3.54825462,29.0857574 5.54579055,25.601801 8.76550308,23.714658 C9.51457906,23.2791634 9.82997947,22.3685839 9.54086242,21.550382 C9.27802875,20.8377545 9.14661191,20.0855367 9.14661191,19.2805316 C9.14661191,15.6382135 12.1034908,12.6689325 15.7305955,12.6689325 C16.5059548,12.6689325 17.2681725,12.8009005 17.9778234,13.0648366 C18.8451745,13.3815599 19.8045175,12.9856558 20.198768,12.1542571 C22.6562628,6.91512564 27.9655031,3.53674365 33.7347023,3.53674365 C41.4882957,3.53674365 47.8882957,9.3697313 48.62423,17.1030588 C48.7030801,17.9080639 49.3075975,18.5547073 50.0960986,18.6866754 C55.9441478,19.6896325 60.3597536,25.1135192 60.3597536,31.3028206 C60.3597536,37.8616325 55.2213552,43.5626521 48.8870637,44.0509339 L39.2016427,44.0509339 C38.2160164,44.0509339 37.4275154,44.8427422 37.4275154,45.8325025 C37.4275154,46.8222629 38.2160164,47.6140712 39.2016427,47.6140712 L48.9527721,47.6140712 L49.0841889,47.6140712 C53.0924025,47.3237415 56.8377823,45.4761888 59.6238193,42.3881365 C62.3967146,39.3264779 63.9080082,35.3938301 63.9080082,31.3028206 C63.8948665,23.8994132 58.8616016,17.3142077 51.9753593,15.4930487 Z" id="Shape"></path>
                        <path d="M42.8119097,34.627968 C43.5084189,33.9285374 43.5084189,32.806809 42.8119097,32.1073784 L33.4156057,22.671663 C33.0870637,22.3417429 32.6271047,22.1437908 32.1671458,22.1437908 C31.7071869,22.1437908 31.2472279,22.3285461 30.9186858,22.671663 L21.5223819,32.1073784 C20.8258727,32.806809 20.8258727,33.9285374 21.5223819,34.627968 C21.8640657,34.971085 22.3240246,35.1558402 22.7708419,35.1558402 C23.2176591,35.1558402 23.6776181,34.9842818 24.0193018,34.627968 L30.3930185,28.2275178 L30.3930185,57.6431954 C30.3930185,58.6329557 31.1815195,59.424764 32.1671458,59.424764 C33.1527721,59.424764 33.9412731,58.6329557 33.9412731,57.6431954 L33.9412731,28.2275178 L40.3149897,34.627968 C40.9983573,35.3273987 42.1154004,35.3273987 42.8119097,34.627968 Z" id="Shape"></path>
                    </g>
                </g>
            </g>
        </g>
    </g>
</svg>