<svg xmlns="http://www.w3.org/2000/svg" width="24" height="24" viewBox="0 0 24 24">
    <g fill="none" fill-rule="evenodd">
        <path stroke="#9499B0" stroke-width=".01" d="M.005.005L0 23.995 23.995 24 24 .005H.005z"/>
        <path stroke="#FFF" stroke-linecap="round" stroke-linejoin="round" stroke-width="1.2" d="M7 17H5a2 2 0 0 1-2-2v-5a2 2 0 0 1 2-2h14a2 2 0 0 1 2 2v5a2 2 0 0 1-2 2h-2M7 4h10v4H7z"/>
        <path stroke="#FFF" stroke-linecap="round" stroke-linejoin="round" stroke-width="1.2" d="M7 14h10v6H7zM5 14h14M9 18h6M9 16h6"/>
    </g>
</svg>
