<?xml version="1.0" encoding="UTF-8"?>
<svg width="14px" height="14px" viewBox="0 0 14 14" version="1.1" xmlns="http://www.w3.org/2000/svg" xmlns:xlink="http://www.w3.org/1999/xlink">
    <!-- Generator: sketchtool 42 (36781) - http://www.bohemiancoding.com/sketch -->
    <title>210F6BF6-570C-474B-A5C3-3C48368F2897</title>
    <desc>Created with sketchtool.</desc>
    <defs></defs>
    <g id="Symbols" stroke="none" stroke-width="1" fill="none" fill-rule="evenodd">
        <g id="ic_size" transform="translate(-1.000000, -1.000000)">
            <g>
                <polygon id="Shape" points="0 0 16 0 16 16 0 16"></polygon>
                <path d="M2.66666667,3.99948665 L2.66666667,12.0005134 C2.66666667,12.7358584 3.26394025,13.3333333 3.99948665,13.3333333 L12.0005134,13.3333333 C12.7358584,13.3333333 13.3333333,12.7360597 13.3333333,12.0005134 L13.3333333,3.99948665 C13.3333333,3.26414156 12.7360597,2.66666667 12.0005134,2.66666667 L3.99948665,2.66666667 C3.26414156,2.66666667 2.66666667,3.26394025 2.66666667,3.99948665 Z M1.33333333,3.99948665 C1.33333333,2.52701083 2.52831176,1.33333333 3.99948665,1.33333333 L12.0005134,1.33333333 C13.4729892,1.33333333 14.6666667,2.52831176 14.6666667,3.99948665 L14.6666667,12.0005134 C14.6666667,13.4729892 13.4716882,14.6666667 12.0005134,14.6666667 L3.99948665,14.6666667 C2.52701083,14.6666667 1.33333333,13.4716882 1.33333333,12.0005134 L1.33333333,3.99948665 Z" id="Rectangle-6" fill="#424242" fill-rule="nonzero"></path>
                <polygon id="Combined-Shape" fill="#424242" points="5.19803328 9.63105966 4 8.45332845 4 11.7733154 7.32053323 11.7733154 6.14136659 10.5738687 7.77333323 8.94280904 6.82999992 8"></polygon>
                <polygon id="Combined-Shape-Copy" fill="#424242" transform="translate(9.886667, 5.886658) scale(-1, -1) translate(-9.886667, -5.886658) " points="9.19803328 5.63105966 8 4.45332845 8 7.77331543 11.3205332 7.77331543 10.1413666 6.5738687 11.7733332 4.94280904 10.8299999 4"></polygon>
            </g>
        </g>
    </g>
</svg>