<?xml version="1.0" encoding="UTF-8"?>
<svg width="14px" height="14px" viewBox="0 0 14 14" version="1.1" xmlns="http://www.w3.org/2000/svg" xmlns:xlink="http://www.w3.org/1999/xlink">
    <!-- Generator: sketchtool 42 (36781) - http://www.bohemiancoding.com/sketch -->
    <title>A75DD740-0E30-4ABE-8DB5-E537B8B57105</title>
    <desc>Created with sketchtool.</desc>
    <defs></defs>
    <g id="Symbols" stroke="none" stroke-width="1" fill="none" fill-rule="evenodd">
        <g id="ic_time" transform="translate(-1.000000, -1.000000)">
            <g id="Shape">
                <path d="M7.99333333,1.33333333 C4.31333333,1.33333333 1.33333333,4.32 1.33333333,8 C1.33333333,11.68 4.31333333,14.6666667 7.99333333,14.6666667 C11.68,14.6666667 14.6666667,11.68 14.6666667,8 C14.6666667,4.32 11.68,1.33333333 7.99333333,1.33333333 Z M8,13.3333333 C5.05333333,13.3333333 2.66666667,10.9466667 2.66666667,8 C2.66666667,5.05333333 5.05333333,2.66666667 8,2.66666667 C10.9466667,2.66666667 13.3333333,5.05333333 13.3333333,8 C13.3333333,10.9466667 10.9466667,13.3333333 8,13.3333333 Z" fill="#424242" fill-rule="nonzero"></path>
                <polygon points="0 0 16 0 16 16 0 16"></polygon>
                <polygon fill="#424242" fill-rule="nonzero" points="8.33333333 4.66666667 7.33333333 4.66666667 7.33333333 8.66666667 10.8333333 10.7666667 11.3333333 9.94666667 8.33333333 8.16666667"></polygon>
            </g>
        </g>
    </g>
</svg>