<svg xmlns="http://www.w3.org/2000/svg" width="24" height="24" viewBox="0 0 24 24">
    <g fill="none" fill-rule="evenodd">
        <path stroke="#FFF" stroke-linecap="round" stroke-linejoin="round" stroke-width="1.2" d="M12 4.4a6.1 6.1 0 0 1 6.1 6.1v7.1H5.9v-7.1A6.1 6.1 0 0 1 12 4.4z"/>
        <rect width="1.4" height="3" x="11.4" y="2" fill="#FFF" rx=".7"/>
        <rect width="18" height="1.2" x="3" y="17" fill="#FFF" rx=".6"/>
        <path stroke="#FFF" stroke-width="1.2" d="M10.735 19.8a1.395 1.395 0 0 1-.135-.6l-.6.6h.735zm2.53 0H14l-.6-.6c0 .215-.048.418-.135.6zm0 0a1.4 1.4 0 0 1-2.53 0h2.53z"/>
    </g>
</svg>
