<svg xmlns="http://www.w3.org/2000/svg" xmlns:xlink="http://www.w3.org/1999/xlink" width="960" height="813" viewBox="0 0 960 813">
    <defs>
        <linearGradient id="b" x1="100%" x2="0%" y1="0%" y2="100%">
            <stop offset="0%" stop-color="#35447E"/>
            <stop offset="100%" stop-color="#12ADDD"/>
        </linearGradient>
        <path id="a" d="M0 0h960v813H0z"/>
        <linearGradient id="c" x1="50%" x2="50%" y1="0%" y2="97.756%">
            <stop offset="0%" stop-opacity="0"/>
            <stop offset="100%" stop-opacity=".131"/>
        </linearGradient>
    </defs>
    <g fill="none" fill-rule="evenodd">
        <mask id="d" fill="#fff">
            <use xlink:href="#a"/>
        </mask>
        <use fill="#35447E" xlink:href="#a"/>
        <use fill="url(#b)" xlink:href="#a"/>
        <path fill="url(#c)" d="M0 136.21c129.735 76.487 236.037 82.3 318.907 17.441C443.21 56.361 435.32-8.139 596.617.831c161.297 8.968 183.53 342.03-31.78 410.406-215.312 68.375-18.29 684.273 401.234 304.695 279.682-253.052 300.32-120.117 61.914 398.805-783.724-49.958-1175.386-79.899-1174.985-89.82.401-9.922 49.401-306.158 147-888.706z" mask="url(#d)"/>
        <path fill="url(#c)" d="M903.32 894.453c-245.756 89.28-328.94 37.884-249.549-154.19 119.086-288.109 153.407-221.804 80.766-397.726-72.64-175.922-100.094-441.031 93.43-424.828 129.015 10.802 218.92 307.885 269.71 891.25L903.32 894.453z" mask="url(#d)"/>
        <path fill="url(#c)" d="M-103.758 540.661c140.291 34.76 251.932 86.74 334.921 155.937 124.485 103.797 387.133 30.07 435.008-121.226 47.875-151.297 529.133-34.242 179.063-430.93C495.164-252.245 445.468 443.294 17.327-88.073-268.1-442.318-308.462-232.74-103.758 540.66z" mask="url(#d)"/>
        <path fill="url(#c)" d="M-532.454-11.112c140.292 34.76 251.933 86.74 334.922 155.937 124.484 103.797 387.133 30.07 435.008-121.227 47.875-151.296 529.133-34.242 179.062-430.93C66.468-804.018 16.773-108.48-411.368-639.846-696.795-994.092-737.157-784.514-532.454-11.112z" mask="url(#d)" transform="rotate(81 -58.725 -306.781)"/>
    </g>
</svg>
