<svg xmlns="http://www.w3.org/2000/svg" width="24" height="24" viewBox="0 0 24 24">
    <g fill="none" fill-rule="evenodd" stroke="#9499B0">
        <path stroke-width=".01" d="M.005.005L0 23.995 23.995 24 24 .005H.005z"/>
        <path stroke-width="1.2" d="M19.181 10.32l-1.123-.19a6.341 6.341 0 0 0-.451-1.09l.662-.926a.985.985 0 0 0-.107-1.273l-.996-.996a.981.981 0 0 0-1.27-.107l-.93.662a6.275 6.275 0 0 0-1.13-.465l-.187-1.11A.987.987 0 0 0 12.673 4h-1.407a.987.987 0 0 0-.976.826l-.194 1.136c-.374.117-.738.27-1.086.458l-.919-.662a.981.981 0 0 0-.575-.184.975.975 0 0 0-.698.291l-1 .996a.99.99 0 0 0-.107 1.274l.669.939c-.184.35-.331.715-.445 1.093l-1.11.187A.987.987 0 0 0 4 11.33v1.407c0 .485.348.896.826.976l1.136.194c.117.374.27.738.458 1.086l-.659.916a.985.985 0 0 0 .107 1.273l.996.996a.981.981 0 0 0 1.27.107l.94-.668c.337.177.692.32 1.056.434l.187 1.123c.08.478.491.826.976.826h1.41a.987.987 0 0 0 .976-.826l.191-1.123a6.341 6.341 0 0 0 1.09-.45l.925.661c.168.12.368.184.575.184a.981.981 0 0 0 .699-.291l.996-.996a.99.99 0 0 0 .107-1.273l-.662-.93c.184-.35.338-.715.451-1.09l1.123-.186a.987.987 0 0 0 .826-.976v-1.408a.975.975 0 0 0-.819-.976z"/>
        <path stroke-width="1.2" d="M12 9c-1.655 0-3 1.345-3 3s1.345 3 3 3 3-1.345 3-3-1.345-3-3-3z"/>
    </g>
</svg>
