<?xml version="1.0" encoding="UTF-8" standalone="no"?>
<svg
   xmlns:dc="http://purl.org/dc/elements/1.1/"
   xmlns:cc="http://creativecommons.org/ns#"
   xmlns:rdf="http://www.w3.org/1999/02/22-rdf-syntax-ns#"
   xmlns:svg="http://www.w3.org/2000/svg"
   xmlns="http://www.w3.org/2000/svg"
   xmlns:sodipodi="http://sodipodi.sourceforge.net/DTD/sodipodi-0.dtd"
   xmlns:inkscape="http://www.inkscape.org/namespaces/inkscape"
   width="120px"
   height="25px"
   viewBox="0 0 120 25"
   version="1.1"
   id="svg2"
   inkscape:version="0.91 r13725"
   sodipodi:docname="log.svg">
  <metadata
     id="metadata30">
    <rdf:RDF>
      <cc:Work
         rdf:about="">
        <dc:format>image/svg+xml</dc:format>
        <dc:type
           rdf:resource="http://purl.org/dc/dcmitype/StillImage" />
        <dc:title>Logo</dc:title>
      </cc:Work>
    </rdf:RDF>
  </metadata>
  <sodipodi:namedview
     pagecolor="#ffffff"
     bordercolor="#666666"
     borderopacity="1"
     objecttolerance="10"
     gridtolerance="10"
     guidetolerance="10"
     inkscape:pageopacity="0"
     inkscape:pageshadow="2"
     inkscape:window-width="1514"
     inkscape:window-height="1026"
     id="namedview28"
     showgrid="false"
     inkscape:zoom="3.5333333"
     inkscape:cx="60"
     inkscape:cy="12.5"
     inkscape:window-x="0"
     inkscape:window-y="0"
     inkscape:window-maximized="0"
     inkscape:current-layer="Logo" />
  <!-- Generator: Sketch 46.2 (44496) - http://www.bohemiancoding.com/sketch -->
  <title
     id="title4">Logo</title>
  <desc
     id="desc6">Created with Sketch.</desc>
  <defs
     id="defs8" />
  <g
     id="Landing-Page"
     stroke="none"
     stroke-width="1"
     fill="none"
     fill-rule="evenodd">
    <g
       id="Bidstack-Landing-Page"
       transform="translate(-150.000000, -5152.000000)">
      <g
         id="Logo"
         transform="translate(150,5152)">
        <path
           style="fill:#ffffff"
           inkscape:connector-curvature="0"
           id="Fill-7"
           d="m 76.300729,11 c 2.084382,0.016 3.155469,0.456901 4.379037,1.338461 0.408011,0.293773 0.4101,0.331987 0.09725,0.710549 -0.296377,0.358977 -0.61132,0.702907 -0.889594,1.075737 -0.22234,0.297833 -0.394781,0.281592 -0.666788,0.04992 -1.556151,-1.324847 -3.670009,-1.370704 -5.195524,-0.115599 -1.032559,0.849794 -1.499985,2.01199 -1.628097,3.329433 -0.166407,1.715828 0.227678,3.25372 1.555918,4.395376 1.386262,1.191813 3.51683,1.578257 5.323404,0.03726 0.40244,-0.343213 0.408243,-0.335809 0.730613,0.07953 0.244389,0.315747 0.477869,0.641764 0.738504,0.942464 0.219323,0.252932 0.17012,0.414149 -0.06684,0.627672 -2.375422,2.139053 -6.279375,2.020827 -8.602344,-0.2718 C 68.859754,20.024816 69.471074,14.299339 73.282424,11.938881 74.301754,11.307626 75.45059,11 76.300729,11" />
        <path
           style="fill:#ffffff"
           inkscape:connector-curvature="0"
           id="Fill-5"
           d="m 84.749887,17.259238 c 1.721596,-1.847769 3.500486,-3.371103 5.143765,-5.154553 0.242576,-0.26319 0.485383,-0.393484 0.84532,-0.37433 0.558617,0.0298 1.120007,0.0061 1.680242,0.0092 0.140001,7.09e-4 0.301488,-0.02459 0.377726,0.139753 0.08224,0.176406 -0.06723,0.267447 -0.161949,0.366527 -1.020436,1.066949 -2.043182,2.131296 -3.06639,3.19517 -0.694461,0.72194 -1.382683,1.450501 -2.09216,2.156598 -0.22086,0.219916 -0.19614,0.352575 -0.0058,0.575093 1.774732,2.075725 3.538605,4.161382 5.305251,6.244202 0.05106,0.06054 0.105579,0.11918 0.148549,0.185628 0.138615,0.212349 0.08779,0.379296 -0.163565,0.384499 -0.820369,0.01584 -1.6412,0.0069 -2.46203,0.0038 -0.199606,-4.73e-4 -0.280927,-0.176169 -0.387198,-0.304572 -1.60747,-1.94212 -3.212629,-3.885896 -4.818944,-5.828962 -0.05036,-0.06077 -0.106503,-0.116343 -0.17581,-0.191777 -0.09957,0.135734 -0.1668,0.571546 -0.167031,0.704915 -0.0035,1.800002 9.24e-4,3.125648 0,4.925887 -2.31e-4,0.504861 0.09056,0.702076 -0.406834,0.703259 -0.442875,9.45e-4 -0.857333,0 -1.318458,0 C 82.085941,24.99958 82,24.576773 82,24.296321 c 0,-0.184683 0,0.173331 0,0 C 82,18.415808 82,12.795175 82,6.7037319 82,6.0082764 82.042971,6 82.687529,6 c 0.203995,0 1.131097,0.8976365 1.457535,1.2024452 0.527892,0.4935109 0.60852,0.8884142 0.604823,1.6124825 -0.0134,2.6666613 0,5.0739163 0,7.7405783 0,0.129348 0,0.477904 0,0.703732" />
        <path
           style="fill:#ffffff"
           inkscape:connector-curvature="0"
           id="Fill-4"
           d="m 60.992848,13.179445 c -2.577372,0.01261 -4.5975,2.186552 -4.592801,4.942691 0.004,2.565643 2.103996,4.688934 4.62663,4.679421 2.508773,-0.0095 4.601728,-2.172045 4.579645,-4.73198 -0.02302,-2.722844 -2.079564,-4.902737 -4.613474,-4.890132 z m 4.772988,10.04853 c -0.579797,0.457335 -1.113548,0.842134 -1.718952,1.110637 -3.689276,1.635752 -8.602281,0.174563 -9.810739,-4.4806 -1.053173,-4.057749 1.507284,-8.260571 5.869388,-8.800193 3.826707,-0.473507 7.118253,2.004379 7.79343,5.852605 0.05991,0.34104 0.08786,0.692305 0.08927,1.039052 0.0082,2.064311 -0.0045,4.128383 0.01175,6.192456 C 68.00327,24.528395 67.577819,25 67.187842,25 c -0.459045,0 -0.205795,0 -0.699139,0 -0.256774,0 -0.734143,-0.455195 -0.725686,-0.712996 0.01081,-0.321062 0.0028,-0.643075 0.0028,-1.059029 l 0,0 z" />
        <path
           style="fill:#ffffff"
           inkscape:connector-curvature="0"
           id="Fill-8"
           d="m 48.100161,18.190127 c 0,-1.398981 0,-2.838684 0,-4.302483 0.0028,-0.289627 -0.186044,-0.317096 -1.523162,-0.317096 -0.276361,0 -0.587767,-0.08988 -0.576713,-0.399984 0.01552,-0.433959 0.01058,-0.99972 0,-1.434161 -0.0064,-0.263363 0.27495,-0.238063 0.524969,-0.238063 1.312186,0 1.574906,0.03855 1.574906,-0.479018 0,-1.4452444 0,-2.5991754 0,-4.3022415 C 48.100161,6.0448175 48.198475,6 48.799884,6 c 0.179693,0 0.997487,0.6491313 1.353817,1.0139364 0.404075,0.4142007 0.746057,0.7900897 0.746057,1.8543855 -0.0063,0.8826162 0,1.3498271 0,2.1510001 -0.0045,0.268183 0.145825,0.476608 1.493527,0.476608 0.299646,0 0.619049,-0.08554 0.606348,0.240473 -0.01623,0.406731 -0.01411,1.027189 0,1.434161 0.01011,0.29541 -0.276831,0.463355 -0.571068,0.454199 -0.463816,-0.01422 -0.928103,0.0019 -1.391684,-0.006 -0.187926,-0.0031 -0.29165,0.03229 -0.290474,0.262882 0.01317,2.72905 0.01129,5.380995 0.03246,8.109804 0.0042,0.570339 0.23379,0.775632 0.780632,0.810812 0.316816,0.02048 0.635043,0.03132 0.952329,0.02626 0.249549,-0.0043 0.365267,0.08795 0.359387,0.355407 -0.01035,0.488415 -0.0042,0.977794 -0.0024,1.466449 7.06e-4,0.182644 -0.04163,0.334445 -0.253782,0.335409 -0.885296,0.0036 -1.776238,0.08554 -2.643424,-0.188185 -0.960796,-0.303121 -1.793172,-1.355128 -1.871494,-2.305453 0,-1.26983 0,-2.270755 0,-3.585161 -0.0059,-0.39372 0,-0.323361 0,-0.71684" />
        <path
           style="fill:#ffffff"
           inkscape:connector-curvature="0"
           id="Fill-6"
           d="m 37.103594,20.786502 c 0.04142,0 0.08358,0.005 0.12402,-9.52e-4 0.67451,0 0.96201,0.03859 1.184315,0.717787 0.33701,1.030346 1.664952,1.592807 2.961767,1.432955 0.537746,-0.06623 1.058334,-0.172003 1.517649,-0.480987 0.856618,-0.576279 1.234804,-2.084752 -0.129412,-2.788246 -0.777207,-0.400703 -1.629659,-0.57485 -2.461767,-0.811174 -0.489462,-0.139126 -0.98456,-0.260624 -1.472796,-0.403324 -2.799757,-0.818559 -3.64167,-4.127099 -1.560786,-6.14205 1.09706,-1.062507 2.480885,-1.345524 3.959073,-1.307169 1.200736,0.03121 2.325002,0.314702 3.216669,1.165898 0.754658,0.720646 1.100737,1.619013 1.178678,2.630776 0.02034,0.264436 -0.0924,0.360204 -0.357353,0.360204 -0.502207,0 -0.927207,0.0026 -1.409315,0.0026 -0.289461,0 -0.413481,-0.09553 -0.476226,-0.371639 -0.417648,-1.83604 -2.775248,-2.553828 -4.237749,-1.297878 -1.075492,0.923618 -0.807109,2.387304 0.547549,2.84828 0.831618,0.283017 1.689708,0.492183 2.534561,0.738275 0.606864,0.176767 1.228188,0.313273 1.805149,0.576279 1.463972,0.667044 2.042404,1.705728 1.965688,3.27233 -0.09265,1.891309 -1.099266,3.149403 -2.98162,3.728302 -1.926473,0.59224 -3.797308,0.458593 -5.482849,-0.72017 -0.952206,-0.666091 -1.378677,-1.644265 -1.524021,-2.754179 -0.04044,-0.309699 0.180883,-0.398797 0.394118,-0.398797 0.240932,0 0.469609,0.0029 0.704658,0.0029" />
        <path
           style="fill:#ffffff"
           inkscape:connector-curvature="0"
           id="Fill-2"
           d="m 31.615583,18.101121 c 0.03615,-2.512003 -2.051561,-4.629757 -4.589253,-4.654833 -2.433236,-0.02391 -4.564137,2.045777 -4.609441,4.47698 -0.05047,2.718878 1.939125,4.880283 4.529632,4.921147 2.572902,0.0404 4.630566,-2.049956 4.669062,-4.743294 z m 0.145769,-5.06905 c 0,-0.507555 0,-0.948241 0,-1.388926 0,-1.7411512 -0.0012,-3.4823018 0.0021,-5.2234525 2.35e-4,-0.1479014 -0.05587,-0.3345777 0.146708,-0.4053939 0.171824,-0.060136 0.26243,0.082658 0.363365,0.1822648 0.34717,0.3415432 0.688705,0.6891232 1.040569,1.0257905 0.463127,0.4430078 0.687062,0.9777284 0.685888,1.614378 -0.0066,3.2728711 0.0066,6.5455101 -0.02277,9.8181481 -0.0099,1.09057 -0.231681,2.156297 -0.713821,3.153064 -0.63636,1.315557 -1.640075,2.250099 -3.043775,2.693107 -2.061186,0.650348 -4.133873,0.729059 -6.159614,-0.149063 -2.694024,-1.167423 -4.326118,-4.024916 -4.024252,-6.989446 0.296467,-2.913217 2.459526,-5.326542 5.401662,-5.873104 2.206016,-0.409805 4.293256,-0.07105 6.092715,1.386141 0.0507,0.04087 0.108211,0.0736 0.231211,0.156492 l 0,0 z" />
        <path
           style="fill:#ffffff"
           inkscape:connector-curvature="0"
           id="Fill-11"
           d="m 16.000003,12.593148 c 0,-0.160742 0.328404,-0.47713 0.538855,-0.565839 0.239435,-0.100984 0.356128,0.10168 0.48996,0.224205 0.391665,0.359005 0.776022,0.724959 1.162646,1.088596 0.416869,0.391895 0.808787,0.773367 0.808535,1.320907 -2.52e-4,3.183102 -0.0091,6.466725 0,9.649595 7.56e-4,0.260105 -0.433252,0.703187 -0.74981,0.689058 -0.56053,0 -0.890699,0 -1.500124,0 -0.317819,0 -0.751322,-0.430574 -0.750062,-0.689058 0.01058,-1.982866 0,-11.717464 0,-11.717464" />
        <path
           style="fill:#ffffff"
           inkscape:connector-curvature="0"
           id="Fill-12"
           d="m 16.000022,7.4897432 c 0.0043,-0.8312711 0.68439,-1.4993913 1.516557,-1.4896377 0.81333,0.00931 1.476865,0.6754354 1.483368,1.4891944 0.007,0.8270593 -0.674075,1.51247 -1.500635,1.5106967 -0.828803,-0.002 -1.503775,-0.681864 -1.49929,-1.5102534" />
        <path
           style="fill:#ffffff"
           inkscape:connector-curvature="0"
           id="Fill-3"
           d="m 2.4176579,18.057055 c -0.021581,2.649212 1.9943648,4.781685 4.5556997,4.818164 2.4979993,0.03555 4.5922934,-2.059982 4.6199734,-4.623226 0.02862,-2.664779 -1.9833397,-4.774947 -4.561564,-4.783312 -2.5078516,-0.0084 -4.5934664,2.065558 -4.6141091,4.588374 z M 2.2586154,13.061378 c 0.8048301,-0.64964 1.5885484,-1.124091 2.486036,-1.376186 4.1186846,-1.15662 7.9070866,0.813444 8.9708886,4.4801 1.302365,4.488464 -2.009143,9.036874 -7.0358715,8.827762 C 3.1392136,24.845747 0.28653534,22.134266 0.06368818,18.650699 0.02685976,18.076804 0.00903199,17.500585 0.00809368,16.925528 0.00316759,13.48146 0.00551335,10.03716 0.00574792,6.5930913 0.00574792,6.4752918 -0.01137612,6.35331 0.01348893,6.2406221 0.06579937,6.0040936 0.21686628,5.9130139 0.40616908,6.100285 0.91074196,6.599597 1.4523778,7.0652189 1.8978376,7.619597 c 0.282664,0.3517722 0.3626544,0.7755718 0.3617161,1.2184237 -0.00235,1.2309703 -9.383e-4,2.4619403 -9.383e-4,3.6929113 0,0.141731 0,0.283462 0,0.530446 l 0,0 z" />
        <g
           transform="translate(100,0)"
           id="Joypad">
          <path
             style="fill:#dacd37"
             inkscape:connector-curvature="0"
             id="Fill-9"
             d="m 9.9481132,18.799292 c -2.9125,0 -5.825,2.36e-4 -8.7375,-2.35e-4 -0.5976415,-2.36e-4 -0.72877358,-0.129953 -0.72971697,-0.718633 -9.434e-4,-0.46533 0.005189,-0.930896 -0.001651,-1.396226 -0.004953,-0.344104 0.17169812,-0.514387 0.49669812,-0.55283 0.11816035,-0.01391 0.23844335,-0.01627 0.35778295,-0.01627 5.7584906,-7.07e-4 11.5169817,-7.07e-4 17.2754717,-2.36e-4 0.706604,0 0.845755,0.137736 0.847406,0.83184 7.07e-4,0.372642 0.0019,0.745047 -4.72e-4,1.117453 -0.0035,0.58066 -0.155896,0.73467 -0.73066,0.734906 -2.925708,4.71e-4 -5.851651,2.35e-4 -8.7773589,2.35e-4" />
          <path
             style="fill:#19a192"
             inkscape:connector-curvature="0"
             id="Fill-10"
             d="m 9.946934,24.592924 c -2.8985849,0 -5.7974057,2.36e-4 -8.6962265,-2.35e-4 -0.65825467,0 -0.77099052,-0.111085 -0.77169807,-0.756368 -4.7169e-4,-0.452123 7.0755e-4,-0.904246 0,-1.356368 -4.7169e-4,-0.358255 0.1764151,-0.542453 0.53584907,-0.544812 0.3058962,-0.0024 0.6115566,-9.43e-4 0.9174528,-9.43e-4 5.5714623,0 11.1426887,0 16.7143867,0 0.696226,2.36e-4 0.80283,0.107783 0.803774,0.810377 4.71e-4,0.372406 0.0017,0.744576 -4.72e-4,1.116982 -0.0031,0.59033 -0.141038,0.73066 -0.726887,0.730896 -2.925472,0.0012 -5.850943,4.71e-4 -8.776179,4.71e-4" />
          <path
             style="fill:#d31270"
             inkscape:connector-curvature="0"
             id="Fill-13"
             d="m 16.745283,9.0801887 c -0.586085,0 -1.061321,-0.4752359 -1.061321,-1.0613208 0,-0.5860849 0.475236,-1.0613207 1.061321,-1.0613207 0.586085,0 1.061321,0.4752358 1.061321,1.0613207 0,0.5860849 -0.475236,1.0613208 -1.061321,1.0613208 z m 0.02618,2.7778303 c -0.571462,0 -1.034905,-0.463443 -1.034905,-1.035142 0,-0.571698 0.463443,-1.0351411 1.034905,-1.0351411 0.571698,0 1.035142,0.4634431 1.035142,1.0351411 0,0.571699 -0.463444,1.035142 -1.035142,1.035142 z M 13.679245,9.0801887 c -0.586085,0 -1.06132,-0.4752359 -1.06132,-1.0613208 0,-0.5860849 0.475235,-1.0613207 1.06132,-1.0613207 0.586085,0 1.061321,0.4752358 1.061321,1.0613207 0,0.5860849 -0.475236,1.0613208 -1.061321,1.0613208 z m -0.02618,2.7778303 c -0.571698,0 -1.035141,-0.463443 -1.035141,-1.035142 0,-0.571698 0.463443,-1.0351411 1.035141,-1.0351411 0.571698,0 1.034906,0.4634431 1.034906,1.0351411 0,0.571699 -0.463208,1.035142 -1.034906,1.035142 z m -3.128773,0.05236 -1.1792458,0 c -0.259434,0 -0.4716981,-0.212264 -0.4716981,-0.471698 0,-0.259434 0.2122641,-0.471698 0.4716981,-0.471698 l 1.1792458,0 c 0.259433,0 0.471698,0.212264 0.471698,0.471698 0,0.259434 -0.212265,0.471698 -0.471698,0.471698 z m -3.3308968,-1.768868 -1.7688679,0 0,1.768868 -1.4150943,0 0,-1.768868 -1.768868,0 0,-1.4150939 1.768868,0 0,-1.7688679 1.4150943,0 0,1.7688679 1.7688679,0 0,1.4150939 z M 18.542217,5.6261792 c -5.753302,-4.717e-4 -11.5070755,-2.358e-4 -17.2603774,0 -0.09316,0 -0.1863207,-0.010377 -0.2790094,0.00519 -0.36250001,0.061321 -0.56155661,0.5587264 -0.55471699,1.6636793 0.008255,1.2985849 0.001415,2.5981132 0.001887,3.8971695 9.434e-4,1.767689 0.12806604,2.132311 0.74622639,2.132547 2.9233491,9.44e-4 5.8464623,4.72e-4 8.7698113,4.72e-4 2.9099051,0 5.8200471,9.43e-4 8.7299531,-7.08e-4 0.581132,-4.71e-4 0.721698,-0.411556 0.724528,-2.10849 0.0017,-1.031604 4.72e-4,-2.0632075 2.36e-4,-3.0948113 -4.72e-4,-2.2084906 -0.10118,-2.4950472 -0.878538,-2.4950472 l 0,0 z" />
          <polygon
             style="fill:#d31270"
             points="10.495283,0.11792453 9.5518868,0.11792453 9.5518868,5.7783019 10.495283,5.7783019 "
             id="Fill-14" />
        </g>
      </g>
    </g>
  </g>
</svg>
