<svg xmlns="http://www.w3.org/2000/svg" width="127" height="127" viewBox="0 0 127 127">
    <g fill="#BDBDBD" fill-rule="nonzero">
        <path d="M126.945 120.814L92.568 86.437c17.517-20.583 16.641-51.676-2.847-71.164-20.583-20.364-53.865-20.364-74.448 0-20.364 20.583-20.364 53.865 0 74.448 19.488 19.488 50.362 20.364 71.164 2.847l34.377 34.377 6.131-6.13zM20.652 84.561c-17.645-17.645-17.645-46.264 0-63.909 17.645-17.645 46.264-17.645 63.909 0 17.645 17.645 17.645 46.264 0 63.909-17.645 17.645-46.264 17.645-63.909 0z"/>
        <path d="M69.29 29L52.21 46.08 35.131 29 29 35.131l17.08 17.08L29 69.29l6.131 6.13 17.08-17.079 17.079 17.08 6.13-6.131-17.079-17.08 17.08-17.079z"/>
    </g>
</svg>
